<svg xmlns="http://www.w3.org/2000/svg" xmlns:xlink="http://www.w3.org/1999/xlink" width="1600" zoomAndPan="magnify" viewBox="0 0 1200 299.999988" height="400" preserveAspectRatio="xMidYMid meet" version="1.2"><defs><clipPath id="a759bddfc8"><path d="M 1101 125 L 1162.796875 125 L 1162.796875 178 L 1101 178 Z M 1101 125 "/></clipPath><clipPath id="0fd8ce1d0a"><path d="M 1076 175 L 1135 175 L 1135 238.714844 L 1076 238.714844 Z M 1076 175 "/></clipPath></defs><g id="258de9a332"><path style=" stroke:none;fill-rule:nonzero;fill:#0e171f;fill-opacity:1;" d="M 1019.554688 195.996094 C 1021.902344 197.683594 1025.046875 197.71875 1027.445312 196.101562 L 1046.765625 183.050781 C 1047.738281 182.320312 1048.710938 181.644531 1049.683594 181 C 1050.136719 180.707031 1050.570312 180.410156 1051.023438 180.097656 C 1050.847656 180.652344 1050.675781 181.191406 1050.519531 181.730469 C 1050.152344 182.894531 1049.839844 184.007812 1049.5625 185.050781 L 1043.480469 207.550781 C 1042.71875 210.351562 1043.792969 213.320312 1046.140625 214.988281 L 1055.089844 221.382812 L 1068.988281 166.007812 L 1058.824219 158.742188 L 1010.816406 189.757812 Z M 1019.554688 195.996094 "/><path style=" stroke:none;fill-rule:nonzero;fill:#0e171f;fill-opacity:1;" d="M 1029.058594 108.492188 C 1028.191406 111.234375 1029.128906 114.242188 1031.40625 116.03125 L 1049.789062 130.386719 C 1050.78125 131.078125 1051.734375 131.808594 1052.640625 132.523438 C 1053.054688 132.851562 1053.492188 133.183594 1053.90625 133.511719 C 1053.335938 133.511719 1052.761719 133.511719 1052.203125 133.53125 C 1050.972656 133.546875 1049.824219 133.582031 1048.746094 133.652344 L 1025.480469 134.816406 C 1022.59375 134.953125 1020.09375 136.882812 1019.226562 139.644531 L 1015.90625 150.140625 L 1072.863281 146.25 L 1076.636719 134.328125 L 1032.292969 98.257812 Z M 1029.058594 108.492188 "/><path style=" stroke:none;fill-rule:nonzero;fill:#0e171f;fill-opacity:1;" d="M 1115.246094 90.488281 C 1112.359375 90.507812 1109.773438 92.332031 1108.796875 95.058594 L 1100.839844 116.96875 C 1100.476562 118.132812 1100.09375 119.246094 1099.675781 120.339844 C 1099.484375 120.84375 1099.3125 121.347656 1099.136719 121.851562 C 1098.945312 121.296875 1098.773438 120.777344 1098.597656 120.238281 C 1098.199219 119.074219 1097.800781 117.996094 1097.417969 116.988281 L 1089.113281 95.214844 C 1088.085938 92.503906 1085.480469 90.730469 1082.59375 90.765625 L 1071.597656 90.855469 L 1092.898438 143.816406 L 1105.394531 143.710938 L 1126 90.402344 L 1115.28125 90.488281 Z M 1115.246094 90.488281 "/><g clip-rule="nonzero" clip-path="url(#a759bddfc8)"><path style=" stroke:none;fill-rule:nonzero;fill:#0e171f;fill-opacity:1;" d="M 1158.980469 166.875 C 1158.058594 164.128906 1155.539062 162.253906 1152.65625 162.148438 L 1129.355469 161.347656 C 1128.136719 161.347656 1126.957031 161.347656 1125.792969 161.296875 C 1125.253906 161.28125 1124.714844 161.261719 1124.175781 161.246094 C 1124.644531 160.898438 1125.097656 160.566406 1125.550781 160.21875 C 1126.523438 159.488281 1127.445312 158.777344 1128.277344 158.082031 L 1146.417969 143.453125 C 1148.675781 141.644531 1149.5625 138.621094 1148.640625 135.875 L 1145.148438 125.433594 L 1101.363281 162.0625 L 1105.324219 173.914062 L 1162.386719 177.039062 L 1158.980469 166.859375 Z M 1158.980469 166.875 "/></g><g clip-rule="nonzero" clip-path="url(#0fd8ce1d0a)"><path style=" stroke:none;fill-rule:nonzero;fill:#0e171f;fill-opacity:1;" d="M 1099.832031 232.085938 C 1102.160156 230.367188 1103.167969 227.378906 1102.371094 224.597656 L 1095.941406 202.199219 C 1095.558594 201.054688 1095.210938 199.90625 1094.898438 198.792969 C 1094.757812 198.273438 1094.601562 197.753906 1094.445312 197.25 C 1094.914062 197.578125 1095.382812 197.910156 1095.835938 198.238281 C 1096.84375 198.953125 1097.800781 199.59375 1098.703125 200.167969 L 1118.214844 212.90625 C 1120.632812 214.484375 1123.792969 214.398438 1126.105469 212.679688 L 1134.949219 206.144531 L 1086.574219 175.804688 L 1076.515625 183.226562 L 1091.179688 238.464844 L 1099.816406 232.085938 Z M 1099.832031 232.085938 "/></g><g style="fill:#0e171f;fill-opacity:1;"><g transform="translate(37.17201, 219.992695)"><path style="stroke:none" d="M 75.390625 1.890625 C 65.660156 1.890625 56.722656 0.21875 48.578125 -3.125 C 40.441406 -6.46875 33.375 -11.203125 27.375 -17.328125 C 21.375 -23.453125 16.734375 -30.710938 13.453125 -39.109375 C 10.171875 -47.515625 8.53125 -56.703125 8.53125 -66.671875 C 8.53125 -76.398438 10.234375 -85.398438 13.640625 -93.671875 C 17.046875 -101.941406 21.84375 -109.140625 28.03125 -115.265625 C 34.21875 -121.390625 41.476562 -126.15625 49.8125 -129.5625 C 58.144531 -132.96875 67.175781 -134.671875 76.90625 -134.671875 C 83.21875 -134.671875 89.4375 -133.816406 95.5625 -132.109375 C 101.6875 -130.410156 107.304688 -127.921875 112.421875 -124.640625 C 117.535156 -121.359375 121.925781 -117.441406 125.59375 -112.890625 L 107.78125 -93.203125 C 104.875 -96.222656 101.78125 -98.835938 98.5 -101.046875 C 95.21875 -103.265625 91.773438 -104.972656 88.171875 -106.171875 C 84.578125 -107.367188 80.757812 -107.96875 76.71875 -107.96875 C 71.289062 -107.96875 66.207031 -106.957031 61.46875 -104.9375 C 56.726562 -102.914062 52.585938 -100.101562 49.046875 -96.5 C 45.515625 -92.90625 42.707031 -88.550781 40.625 -83.4375 C 38.539062 -78.320312 37.5 -72.671875 37.5 -66.484375 C 37.5 -60.171875 38.507812 -54.457031 40.53125 -49.34375 C 42.550781 -44.226562 45.390625 -39.867188 49.046875 -36.265625 C 52.710938 -32.671875 57.101562 -29.894531 62.21875 -27.9375 C 67.332031 -25.976562 72.984375 -25 79.171875 -25 C 83.210938 -25 87.128906 -25.566406 90.921875 -26.703125 C 94.710938 -27.835938 98.21875 -29.414062 101.4375 -31.4375 C 104.65625 -33.457031 107.523438 -35.796875 110.046875 -38.453125 L 124.078125 -16.296875 C 120.910156 -12.878906 116.769531 -9.78125 111.65625 -7 C 106.550781 -4.226562 100.835938 -2.050781 94.515625 -0.46875 C 88.203125 1.101562 81.828125 1.890625 75.390625 1.890625 Z M 75.390625 1.890625 "/></g></g><g style="fill:#0e171f;fill-opacity:1;"><g transform="translate(158.205991, 219.992695)"><path style="stroke:none" d="M 13.640625 0 L 13.640625 -140.171875 L 40.53125 -140.171875 L 40.53125 0 Z M 13.640625 0 "/></g></g><g style="fill:#0e171f;fill-opacity:1;"><g transform="translate(203.095894, 219.992695)"><path style="stroke:none" d="M 15.71875 0 L 15.71875 -100.203125 L 42.625 -100.203125 L 42.625 0 Z M 28.984375 -120.65625 C 23.804688 -120.65625 19.765625 -121.945312 16.859375 -124.53125 C 13.953125 -127.125 12.5 -130.757812 12.5 -135.4375 C 12.5 -139.726562 13.984375 -143.226562 16.953125 -145.9375 C 19.921875 -148.65625 23.929688 -150.015625 28.984375 -150.015625 C 34.160156 -150.015625 38.203125 -148.71875 41.109375 -146.125 C 44.015625 -143.539062 45.46875 -139.976562 45.46875 -135.4375 C 45.46875 -131.144531 43.984375 -127.609375 41.015625 -124.828125 C 38.046875 -122.046875 34.035156 -120.65625 28.984375 -120.65625 Z M 28.984375 -120.65625 "/></g></g><g style="fill:#0e171f;fill-opacity:1;"><g transform="translate(251.584661, 219.992695)"><path style="stroke:none" d="M 61 1.890625 C 50.132812 1.890625 40.628906 -0.316406 32.484375 -4.734375 C 24.335938 -9.148438 18.019531 -15.207031 13.53125 -22.90625 C 9.050781 -30.613281 6.8125 -39.457031 6.8125 -49.4375 C 6.8125 -57.269531 8.070312 -64.40625 10.59375 -70.84375 C 13.125 -77.28125 16.660156 -82.867188 21.203125 -87.609375 C 25.753906 -92.347656 31.15625 -96.007812 37.40625 -98.59375 C 43.65625 -101.1875 50.445312 -102.484375 57.78125 -102.484375 C 64.59375 -102.484375 70.898438 -101.21875 76.703125 -98.6875 C 82.515625 -96.164062 87.535156 -92.660156 91.765625 -88.171875 C 96.003906 -83.691406 99.257812 -78.390625 101.53125 -72.265625 C 103.800781 -66.140625 104.8125 -59.539062 104.5625 -52.46875 L 104.375 -44.140625 L 23.859375 -44.140625 L 19.515625 -60.609375 L 82.203125 -60.609375 L 79.171875 -57.203125 L 79.171875 -61.375 C 78.921875 -64.78125 77.816406 -67.835938 75.859375 -70.546875 C 73.898438 -73.265625 71.40625 -75.414062 68.375 -77 C 65.34375 -78.582031 61.9375 -79.375 58.15625 -79.375 C 52.59375 -79.375 47.882812 -78.296875 44.03125 -76.140625 C 40.1875 -73.992188 37.253906 -70.835938 35.234375 -66.671875 C 33.210938 -62.503906 32.203125 -57.453125 32.203125 -51.515625 C 32.203125 -45.460938 33.492188 -40.222656 36.078125 -35.796875 C 38.671875 -31.378906 42.332031 -27.9375 47.0625 -25.46875 C 51.800781 -23.007812 57.390625 -21.78125 63.828125 -21.78125 C 68.253906 -21.78125 72.296875 -22.472656 75.953125 -23.859375 C 79.617188 -25.253906 83.535156 -27.65625 87.703125 -31.0625 L 100.578125 -13.0625 C 96.921875 -9.78125 92.878906 -7.035156 88.453125 -4.828125 C 84.035156 -2.617188 79.488281 -0.945312 74.8125 0.1875 C 70.144531 1.320312 65.539062 1.890625 61 1.890625 Z M 61 1.890625 "/></g></g><g style="fill:#0e171f;fill-opacity:1;"><g transform="translate(353.109095, 219.992695)"><path style="stroke:none" d="M 13.453125 0 L 13.453125 -100.203125 L 39.203125 -100.203125 L 39.96875 -79.75 L 34.671875 -77.46875 C 36.054688 -82.019531 38.546875 -86.15625 42.140625 -89.875 C 45.742188 -93.601562 50.070312 -96.601562 55.125 -98.875 C 60.175781 -101.144531 65.476562 -102.28125 71.03125 -102.28125 C 78.613281 -102.28125 84.957031 -100.765625 90.0625 -97.734375 C 95.175781 -94.710938 99.03125 -90.140625 101.625 -84.015625 C 104.21875 -77.890625 105.515625 -70.34375 105.515625 -61.375 L 105.515625 0 L 78.609375 0 L 78.609375 -59.28125 C 78.609375 -63.832031 77.976562 -67.625 76.71875 -70.65625 C 75.457031 -73.6875 73.53125 -75.894531 70.9375 -77.28125 C 68.351562 -78.675781 65.164062 -79.304688 61.375 -79.171875 C 58.34375 -79.171875 55.53125 -78.695312 52.9375 -77.75 C 50.351562 -76.8125 48.144531 -75.457031 46.3125 -73.6875 C 44.476562 -71.914062 43.023438 -69.894531 41.953125 -67.625 C 40.878906 -65.351562 40.34375 -62.890625 40.34375 -60.234375 L 40.34375 0 L 27.09375 0 C 24.1875 0 21.59375 0 19.3125 0 C 17.039062 0 15.085938 0 13.453125 0 Z M 13.453125 0 "/></g></g><g style="fill:#0e171f;fill-opacity:1;"><g transform="translate(461.452416, 219.992695)"><path style="stroke:none" d="M 23.109375 0 L 23.109375 -125.59375 L 50 -125.59375 L 50 0 Z M 4.359375 -76.140625 L 4.359375 -100.203125 L 70.65625 -100.203125 L 70.65625 -76.140625 Z M 4.359375 -76.140625 "/></g></g><g style="fill:#0e171f;fill-opacity:1;"><g transform="translate(526.609509, 219.992695)"><path style="stroke:none" d="M 17.234375 0 L 17.234375 -132.59375 L 74.828125 -132.59375 C 83.660156 -132.59375 91.140625 -131.296875 97.265625 -128.703125 C 103.390625 -126.117188 108.03125 -122.363281 111.1875 -117.4375 C 114.34375 -112.507812 115.921875 -106.640625 115.921875 -99.828125 C 115.921875 -92.242188 114.023438 -85.925781 110.234375 -80.875 C 106.453125 -75.832031 101.023438 -72.363281 93.953125 -70.46875 L 93.765625 -74.25 C 99.703125 -72.863281 104.847656 -70.59375 109.203125 -67.4375 C 113.554688 -64.28125 116.929688 -60.363281 119.328125 -55.6875 C 121.734375 -51.019531 122.9375 -45.71875 122.9375 -39.78125 C 122.9375 -33.207031 121.863281 -27.425781 119.71875 -22.4375 C 117.570312 -17.457031 114.414062 -13.320312 110.25 -10.03125 C 106.082031 -6.75 101.1875 -4.253906 95.5625 -2.546875 C 89.945312 -0.847656 83.664062 0 76.71875 0 Z M 44.515625 -24.625 L 75.578125 -24.625 C 79.617188 -24.625 83.0625 -25.222656 85.90625 -26.421875 C 88.75 -27.617188 90.925781 -29.476562 92.4375 -32 C 93.957031 -34.53125 94.71875 -37.503906 94.71875 -40.921875 C 94.71875 -44.203125 93.894531 -46.976562 92.25 -49.25 C 90.601562 -51.519531 88.296875 -53.253906 85.328125 -54.453125 C 82.367188 -55.660156 78.800781 -56.265625 74.625 -56.265625 L 44.515625 -56.265625 Z M 44.515625 -78.796875 L 71.40625 -78.796875 C 74.820312 -78.796875 77.789062 -79.425781 80.3125 -80.6875 C 82.84375 -81.957031 84.769531 -83.664062 86.09375 -85.8125 C 87.414062 -87.957031 88.078125 -90.484375 88.078125 -93.390625 C 88.078125 -98.054688 86.5625 -101.648438 83.53125 -104.171875 C 80.5 -106.703125 75.890625 -107.96875 69.703125 -107.96875 L 44.515625 -107.96875 Z M 44.515625 -78.796875 "/></g></g><g style="fill:#0e171f;fill-opacity:1;"><g transform="translate(648.401114, 219.992695)"><path style="stroke:none" d="M 60.046875 1.890625 C 49.816406 1.890625 40.691406 -0.347656 32.671875 -4.828125 C 24.648438 -9.316406 18.332031 -15.472656 13.71875 -23.296875 C 9.113281 -31.128906 6.8125 -40.097656 6.8125 -50.203125 C 6.8125 -60.296875 9.113281 -69.257812 13.71875 -77.09375 C 18.332031 -84.925781 24.648438 -91.082031 32.671875 -95.5625 C 40.691406 -100.039062 49.816406 -102.28125 60.046875 -102.28125 C 70.148438 -102.28125 79.207031 -100.039062 87.21875 -95.5625 C 95.238281 -91.082031 101.519531 -84.925781 106.0625 -77.09375 C 110.613281 -69.257812 112.890625 -60.296875 112.890625 -50.203125 C 112.890625 -40.097656 110.613281 -31.128906 106.0625 -23.296875 C 101.519531 -15.472656 95.238281 -9.316406 87.21875 -4.828125 C 79.207031 -0.347656 70.148438 1.890625 60.046875 1.890625 Z M 60.046875 -21.59375 C 64.972656 -21.59375 69.390625 -22.820312 73.296875 -25.28125 C 77.210938 -27.75 80.273438 -31.160156 82.484375 -35.515625 C 84.703125 -39.867188 85.75 -44.765625 85.625 -50.203125 C 85.75 -55.753906 84.703125 -60.707031 82.484375 -65.0625 C 80.273438 -69.414062 77.210938 -72.820312 73.296875 -75.28125 C 69.390625 -77.75 64.972656 -78.984375 60.046875 -78.984375 C 54.992188 -78.984375 50.507812 -77.71875 46.59375 -75.1875 C 42.675781 -72.664062 39.582031 -69.257812 37.3125 -64.96875 C 35.039062 -60.675781 33.96875 -55.753906 34.09375 -50.203125 C 33.96875 -44.765625 35.039062 -39.867188 37.3125 -35.515625 C 39.582031 -31.160156 42.675781 -27.75 46.59375 -25.28125 C 50.507812 -22.820312 54.992188 -21.59375 60.046875 -21.59375 Z M 60.046875 -21.59375 "/></g></g><g style="fill:#0e171f;fill-opacity:1;"><g transform="translate(758.827967, 219.992695)"><path style="stroke:none" d="M 60.046875 1.890625 C 49.816406 1.890625 40.691406 -0.347656 32.671875 -4.828125 C 24.648438 -9.316406 18.332031 -15.472656 13.71875 -23.296875 C 9.113281 -31.128906 6.8125 -40.097656 6.8125 -50.203125 C 6.8125 -60.296875 9.113281 -69.257812 13.71875 -77.09375 C 18.332031 -84.925781 24.648438 -91.082031 32.671875 -95.5625 C 40.691406 -100.039062 49.816406 -102.28125 60.046875 -102.28125 C 70.148438 -102.28125 79.207031 -100.039062 87.21875 -95.5625 C 95.238281 -91.082031 101.519531 -84.925781 106.0625 -77.09375 C 110.613281 -69.257812 112.890625 -60.296875 112.890625 -50.203125 C 112.890625 -40.097656 110.613281 -31.128906 106.0625 -23.296875 C 101.519531 -15.472656 95.238281 -9.316406 87.21875 -4.828125 C 79.207031 -0.347656 70.148438 1.890625 60.046875 1.890625 Z M 60.046875 -21.59375 C 64.972656 -21.59375 69.390625 -22.820312 73.296875 -25.28125 C 77.210938 -27.75 80.273438 -31.160156 82.484375 -35.515625 C 84.703125 -39.867188 85.75 -44.765625 85.625 -50.203125 C 85.75 -55.753906 84.703125 -60.707031 82.484375 -65.0625 C 80.273438 -69.414062 77.210938 -72.820312 73.296875 -75.28125 C 69.390625 -77.75 64.972656 -78.984375 60.046875 -78.984375 C 54.992188 -78.984375 50.507812 -77.71875 46.59375 -75.1875 C 42.675781 -72.664062 39.582031 -69.257812 37.3125 -64.96875 C 35.039062 -60.675781 33.96875 -55.753906 34.09375 -50.203125 C 33.96875 -44.765625 35.039062 -39.867188 37.3125 -35.515625 C 39.582031 -31.160156 42.675781 -27.75 46.59375 -25.28125 C 50.507812 -22.820312 54.992188 -21.59375 60.046875 -21.59375 Z M 60.046875 -21.59375 "/></g></g><g style="fill:#0e171f;fill-opacity:1;"><g transform="translate(869.254819, 219.992695)"><path style="stroke:none" d="M 39.015625 -30.125 L 31.0625 -52.28125 L 78.421875 -100.203125 L 113.84375 -100.203125 Z M 13.453125 0 L 13.453125 -140.171875 L 40.34375 -140.171875 L 40.34375 0 Z M 81.265625 0 L 45.265625 -45.265625 L 64.21875 -60.421875 L 113.65625 0 Z M 81.265625 0 "/></g></g></g></svg>